<?xml version="1.0" encoding="UTF-8"?>
<svg id="vector" xmlns="http://www.w3.org/2000/svg" viewBox="0 0 178.16 194.05">
  <defs>
    <style>
      .cls-1 {
        stroke-width: 6px;
      }

      .cls-1, .cls-2 {
        fill: none;
        stroke: #fff;
        stroke-miterlimit: 10;
      }

      .cls-2 {
        stroke-width: 4px;
      }
    </style>
  </defs>
  <path class="cls-1" d="M107,44.48c23.94,29.41,35.93,33.74,35.93,33.74,0,0-8.55-42.64-21.43-58.9,0,0-57.96-20.72-86.79,49.29-8.64,20.99-14.67,50.13-15.73,90.42l36.58,7.25"/>
  <path class="cls-2" d="M146.04,109.09s1.56,48.02-32.74,62.37"/>
  <path class="cls-2" d="M88.36,171.46s-64.55-14.03-54.57-65.48"/>
  <path class="cls-1" d="M34.71,68.62s44.22,8.54,72.29-24.14c5.65-6.58,10.65-14.83,14.5-25.16"/>
  <path class="cls-2" d="M94.57,127.73l-14.05-3.93,4.5-28.95"/>
  <path class="cls-2" d="M96.95,101.65s15.5-9.17,39.34,4.33c0,0,3.01.66,7.64-3.68"/>
  <path class="cls-2" d="M70.11,92.39s-10.41-5.78-28.69,2.78c0,0-5.34-1.05-5.09-13.65"/>
  <path class="cls-2" d="M42.58,84.76c-1.16,10.41,2.56,8.83,2.56,8.83"/>
  <path class="cls-2" d="M134.78,95.28c3.74,5.79,1.66,10.8,1.66,10.8"/>
  <path class="cls-2" d="M68.29,143.95s29.17,1.7,49.1-10.94l-5.83-6.14"/>
  <line class="cls-2" x1="122.5" y1="138.72" x2="117.39" y2="133.01"/>
  <polyline class="cls-1" points="154.63 126.87 160.53 171.46 137.79 171.46"/>
  <ellipse class="cls-2" cx="66.38" cy="97.03" rx="6.68" ry="5.66"/>
  <ellipse class="cls-2" cx="100.39" cy="106.54" rx="6.27" ry="5.86"/>
</svg>